<mxfile host="app.diagrams.net" agent="Mozilla/5.0 (Windows NT 10.0; Win64; x64) AppleWebKit/537.36 (KHTML, like Gecko) Chrome/133.0.0.0 Safari/537.36 Edg/133.0.0.0" version="26.0.16">
  <diagram id="C5RBs43oDa-KdzZeNtuy" name="Page-1">
    <mxGraphModel dx="1994" dy="1160" grid="1" gridSize="10" guides="1" tooltips="1" connect="1" arrows="1" fold="1" page="1" pageScale="1" pageWidth="827" pageHeight="1169" math="0" shadow="0">
      <root>
        <mxCell id="WIyWlLk6GJQsqaUBKTNV-0" />
        <mxCell id="WIyWlLk6GJQsqaUBKTNV-1" parent="WIyWlLk6GJQsqaUBKTNV-0" />
        <mxCell id="s-BpeEBcPMlO-4F1Bydf-0" value="PlayerAnim" style="swimlane;fontStyle=1;align=center;verticalAlign=top;childLayout=stackLayout;horizontal=1;startSize=26;horizontalStack=0;resizeParent=1;resizeParentMax=0;resizeLast=0;collapsible=1;marginBottom=0;whiteSpace=wrap;html=1;" vertex="1" parent="WIyWlLk6GJQsqaUBKTNV-1">
          <mxGeometry x="30" y="270" width="465.12" height="372" as="geometry" />
        </mxCell>
        <mxCell id="s-BpeEBcPMlO-4F1Bydf-1" value="_graph : PlayableGraph" style="text;strokeColor=none;fillColor=none;align=left;verticalAlign=top;spacingLeft=4;spacingRight=4;overflow=hidden;rotatable=0;points=[[0,0.5],[1,0.5]];portConstraint=eastwest;whiteSpace=wrap;html=1;" vertex="1" parent="s-BpeEBcPMlO-4F1Bydf-0">
          <mxGeometry y="26" width="465.12" height="26" as="geometry" />
        </mxCell>
        <mxCell id="s-BpeEBcPMlO-4F1Bydf-9" value="_mainMixer : Mixer" style="text;strokeColor=none;fillColor=none;align=left;verticalAlign=top;spacingLeft=4;spacingRight=4;overflow=hidden;rotatable=0;points=[[0,0.5],[1,0.5]];portConstraint=eastwest;whiteSpace=wrap;html=1;" vertex="1" parent="s-BpeEBcPMlO-4F1Bydf-0">
          <mxGeometry y="52" width="465.12" height="26" as="geometry" />
        </mxCell>
        <mxCell id="s-BpeEBcPMlO-4F1Bydf-10" value="_animStateIndex : Dictionary&amp;lt;string, int&amp;gt;" style="text;strokeColor=none;fillColor=none;align=left;verticalAlign=top;spacingLeft=4;spacingRight=4;overflow=hidden;rotatable=0;points=[[0,0.5],[1,0.5]];portConstraint=eastwest;whiteSpace=wrap;html=1;" vertex="1" parent="s-BpeEBcPMlO-4F1Bydf-0">
          <mxGeometry y="78" width="465.12" height="26" as="geometry" />
        </mxCell>
        <mxCell id="s-BpeEBcPMlO-4F1Bydf-11" value="_param : PlayerParam" style="text;strokeColor=none;fillColor=none;align=left;verticalAlign=top;spacingLeft=4;spacingRight=4;overflow=hidden;rotatable=0;points=[[0,0.5],[1,0.5]];portConstraint=eastwest;whiteSpace=wrap;html=1;" vertex="1" parent="s-BpeEBcPMlO-4F1Bydf-0">
          <mxGeometry y="104" width="465.12" height="26" as="geometry" />
        </mxCell>
        <mxCell id="s-BpeEBcPMlO-4F1Bydf-12" value="_moveAnim : BlendTree2D" style="text;strokeColor=none;fillColor=none;align=left;verticalAlign=top;spacingLeft=4;spacingRight=4;overflow=hidden;rotatable=0;points=[[0,0.5],[1,0.5]];portConstraint=eastwest;whiteSpace=wrap;html=1;" vertex="1" parent="s-BpeEBcPMlO-4F1Bydf-0">
          <mxGeometry y="130" width="465.12" height="26" as="geometry" />
        </mxCell>
        <mxCell id="s-BpeEBcPMlO-4F1Bydf-13" value="_rollAnim : AnimSelector" style="text;strokeColor=none;fillColor=none;align=left;verticalAlign=top;spacingLeft=4;spacingRight=4;overflow=hidden;rotatable=0;points=[[0,0.5],[1,0.5]];portConstraint=eastwest;whiteSpace=wrap;html=1;" vertex="1" parent="s-BpeEBcPMlO-4F1Bydf-0">
          <mxGeometry y="156" width="465.12" height="26" as="geometry" />
        </mxCell>
        <mxCell id="s-BpeEBcPMlO-4F1Bydf-2" value="" style="line;strokeWidth=1;fillColor=none;align=left;verticalAlign=middle;spacingTop=-1;spacingLeft=3;spacingRight=3;rotatable=0;labelPosition=right;points=[];portConstraint=eastwest;strokeColor=inherit;" vertex="1" parent="s-BpeEBcPMlO-4F1Bydf-0">
          <mxGeometry y="182" width="465.12" height="8" as="geometry" />
        </mxCell>
        <mxCell id="s-BpeEBcPMlO-4F1Bydf-3" value="+PlayerAnim(PlayerMotion motion, AnimSetting setting)" style="text;strokeColor=none;fillColor=none;align=left;verticalAlign=top;spacingLeft=4;spacingRight=4;overflow=hidden;rotatable=0;points=[[0,0.5],[1,0.5]];portConstraint=eastwest;whiteSpace=wrap;html=1;" vertex="1" parent="s-BpeEBcPMlO-4F1Bydf-0">
          <mxGeometry y="190" width="465.12" height="26" as="geometry" />
        </mxCell>
        <mxCell id="s-BpeEBcPMlO-4F1Bydf-14" value="+AddAnimState(stirng stateName, AnimBehaviour behaviour) : void" style="text;strokeColor=none;fillColor=none;align=left;verticalAlign=top;spacingLeft=4;spacingRight=4;overflow=hidden;rotatable=0;points=[[0,0.5],[1,0.5]];portConstraint=eastwest;whiteSpace=wrap;html=1;" vertex="1" parent="s-BpeEBcPMlO-4F1Bydf-0">
          <mxGeometry y="216" width="465.12" height="26" as="geometry" />
        </mxCell>
        <mxCell id="s-BpeEBcPMlO-4F1Bydf-15" value="+Update : void" style="text;strokeColor=none;fillColor=none;align=left;verticalAlign=top;spacingLeft=4;spacingRight=4;overflow=hidden;rotatable=0;points=[[0,0.5],[1,0.5]];portConstraint=eastwest;whiteSpace=wrap;html=1;" vertex="1" parent="s-BpeEBcPMlO-4F1Bydf-0">
          <mxGeometry y="242" width="465.12" height="26" as="geometry" />
        </mxCell>
        <mxCell id="s-BpeEBcPMlO-4F1Bydf-16" value="+TransitionTo(string name) : void" style="text;strokeColor=none;fillColor=none;align=left;verticalAlign=top;spacingLeft=4;spacingRight=4;overflow=hidden;rotatable=0;points=[[0,0.5],[1,0.5]];portConstraint=eastwest;whiteSpace=wrap;html=1;" vertex="1" parent="s-BpeEBcPMlO-4F1Bydf-0">
          <mxGeometry y="268" width="465.12" height="26" as="geometry" />
        </mxCell>
        <mxCell id="s-BpeEBcPMlO-4F1Bydf-17" value="+SetMoveAnim(float x, float y) : void" style="text;strokeColor=none;fillColor=none;align=left;verticalAlign=top;spacingLeft=4;spacingRight=4;overflow=hidden;rotatable=0;points=[[0,0.5],[1,0.5]];portConstraint=eastwest;whiteSpace=wrap;html=1;" vertex="1" parent="s-BpeEBcPMlO-4F1Bydf-0">
          <mxGeometry y="294" width="465.12" height="26" as="geometry" />
        </mxCell>
        <mxCell id="s-BpeEBcPMlO-4F1Bydf-18" value="+SetRollAnim(float x, float y) : void" style="text;strokeColor=none;fillColor=none;align=left;verticalAlign=top;spacingLeft=4;spacingRight=4;overflow=hidden;rotatable=0;points=[[0,0.5],[1,0.5]];portConstraint=eastwest;whiteSpace=wrap;html=1;" vertex="1" parent="s-BpeEBcPMlO-4F1Bydf-0">
          <mxGeometry y="320" width="465.12" height="26" as="geometry" />
        </mxCell>
        <mxCell id="s-BpeEBcPMlO-4F1Bydf-19" value="+Stop() : void" style="text;strokeColor=none;fillColor=none;align=left;verticalAlign=top;spacingLeft=4;spacingRight=4;overflow=hidden;rotatable=0;points=[[0,0.5],[1,0.5]];portConstraint=eastwest;whiteSpace=wrap;html=1;" vertex="1" parent="s-BpeEBcPMlO-4F1Bydf-0">
          <mxGeometry y="346" width="465.12" height="26" as="geometry" />
        </mxCell>
        <mxCell id="s-BpeEBcPMlO-4F1Bydf-5" value="PlayerAI" style="swimlane;fontStyle=1;align=center;verticalAlign=top;childLayout=stackLayout;horizontal=1;startSize=26;horizontalStack=0;resizeParent=1;resizeParentMax=0;resizeLast=0;collapsible=1;marginBottom=0;whiteSpace=wrap;html=1;" vertex="1" parent="WIyWlLk6GJQsqaUBKTNV-1">
          <mxGeometry x="414" y="20" width="396" height="138" as="geometry" />
        </mxCell>
        <mxCell id="s-BpeEBcPMlO-4F1Bydf-6" value="+ currentStateName : string =&amp;gt;" style="text;strokeColor=none;fillColor=none;align=left;verticalAlign=top;spacingLeft=4;spacingRight=4;overflow=hidden;rotatable=0;points=[[0,0.5],[1,0.5]];portConstraint=eastwest;whiteSpace=wrap;html=1;" vertex="1" parent="s-BpeEBcPMlO-4F1Bydf-5">
          <mxGeometry y="26" width="396" height="26" as="geometry" />
        </mxCell>
        <mxCell id="s-BpeEBcPMlO-4F1Bydf-86" value="-_fsm : BaseFSM&amp;lt;PlayerMotion&amp;gt;" style="text;strokeColor=none;fillColor=none;align=left;verticalAlign=top;spacingLeft=4;spacingRight=4;overflow=hidden;rotatable=0;points=[[0,0.5],[1,0.5]];portConstraint=eastwest;whiteSpace=wrap;html=1;" vertex="1" parent="s-BpeEBcPMlO-4F1Bydf-5">
          <mxGeometry y="52" width="396" height="26" as="geometry" />
        </mxCell>
        <mxCell id="s-BpeEBcPMlO-4F1Bydf-7" value="" style="line;strokeWidth=1;fillColor=none;align=left;verticalAlign=middle;spacingTop=-1;spacingLeft=3;spacingRight=3;rotatable=0;labelPosition=right;points=[];portConstraint=eastwest;strokeColor=inherit;" vertex="1" parent="s-BpeEBcPMlO-4F1Bydf-5">
          <mxGeometry y="78" width="396" height="8" as="geometry" />
        </mxCell>
        <mxCell id="s-BpeEBcPMlO-4F1Bydf-8" value="+PlayerAI(PlayerMotion motion)" style="text;strokeColor=none;fillColor=none;align=left;verticalAlign=top;spacingLeft=4;spacingRight=4;overflow=hidden;rotatable=0;points=[[0,0.5],[1,0.5]];portConstraint=eastwest;whiteSpace=wrap;html=1;" vertex="1" parent="s-BpeEBcPMlO-4F1Bydf-5">
          <mxGeometry y="86" width="396" height="26" as="geometry" />
        </mxCell>
        <mxCell id="s-BpeEBcPMlO-4F1Bydf-87" value="+ Update : void" style="text;strokeColor=none;fillColor=none;align=left;verticalAlign=top;spacingLeft=4;spacingRight=4;overflow=hidden;rotatable=0;points=[[0,0.5],[1,0.5]];portConstraint=eastwest;whiteSpace=wrap;html=1;" vertex="1" parent="s-BpeEBcPMlO-4F1Bydf-5">
          <mxGeometry y="112" width="396" height="26" as="geometry" />
        </mxCell>
        <mxCell id="s-BpeEBcPMlO-4F1Bydf-20" value="PlayerMotion" style="swimlane;fontStyle=1;align=center;verticalAlign=top;childLayout=stackLayout;horizontal=1;startSize=26;horizontalStack=0;resizeParent=1;resizeParentMax=0;resizeLast=0;collapsible=1;marginBottom=0;whiteSpace=wrap;html=1;" vertex="1" parent="WIyWlLk6GJQsqaUBKTNV-1">
          <mxGeometry x="670" y="270" width="470" height="346" as="geometry" />
        </mxCell>
        <mxCell id="s-BpeEBcPMlO-4F1Bydf-21" value="+AI : PlayerAI get private set;" style="text;strokeColor=none;fillColor=none;align=left;verticalAlign=top;spacingLeft=4;spacingRight=4;overflow=hidden;rotatable=0;points=[[0,0.5],[1,0.5]];portConstraint=eastwest;whiteSpace=wrap;html=1;" vertex="1" parent="s-BpeEBcPMlO-4F1Bydf-20">
          <mxGeometry y="26" width="470" height="26" as="geometry" />
        </mxCell>
        <mxCell id="s-BpeEBcPMlO-4F1Bydf-25" value="+Input :&amp;nbsp; PlayerInput //" style="text;strokeColor=none;fillColor=none;align=left;verticalAlign=top;spacingLeft=4;spacingRight=4;overflow=hidden;rotatable=0;points=[[0,0.5],[1,0.5]];portConstraint=eastwest;whiteSpace=wrap;html=1;" vertex="1" parent="s-BpeEBcPMlO-4F1Bydf-20">
          <mxGeometry y="52" width="470" height="26" as="geometry" />
        </mxCell>
        <mxCell id="s-BpeEBcPMlO-4F1Bydf-26" value="+Param : PlayerParam" style="text;strokeColor=none;fillColor=none;align=left;verticalAlign=top;spacingLeft=4;spacingRight=4;overflow=hidden;rotatable=0;points=[[0,0.5],[1,0.5]];portConstraint=eastwest;whiteSpace=wrap;html=1;" vertex="1" parent="s-BpeEBcPMlO-4F1Bydf-20">
          <mxGeometry y="78" width="470" height="26" as="geometry" />
        </mxCell>
        <mxCell id="s-BpeEBcPMlO-4F1Bydf-27" value="+Motor : PlayerMotor" style="text;strokeColor=none;fillColor=none;align=left;verticalAlign=top;spacingLeft=4;spacingRight=4;overflow=hidden;rotatable=0;points=[[0,0.5],[1,0.5]];portConstraint=eastwest;whiteSpace=wrap;html=1;" vertex="1" parent="s-BpeEBcPMlO-4F1Bydf-20">
          <mxGeometry y="104" width="470" height="26" as="geometry" />
        </mxCell>
        <mxCell id="s-BpeEBcPMlO-4F1Bydf-28" value="+Anim : PlayerAnim" style="text;strokeColor=none;fillColor=none;align=left;verticalAlign=top;spacingLeft=4;spacingRight=4;overflow=hidden;rotatable=0;points=[[0,0.5],[1,0.5]];portConstraint=eastwest;whiteSpace=wrap;html=1;" vertex="1" parent="s-BpeEBcPMlO-4F1Bydf-20">
          <mxGeometry y="130" width="470" height="26" as="geometry" />
        </mxCell>
        <mxCell id="s-BpeEBcPMlO-4F1Bydf-29" value="+Model : Transform" style="text;strokeColor=none;fillColor=none;align=left;verticalAlign=top;spacingLeft=4;spacingRight=4;overflow=hidden;rotatable=0;points=[[0,0.5],[1,0.5]];portConstraint=eastwest;whiteSpace=wrap;html=1;" vertex="1" parent="s-BpeEBcPMlO-4F1Bydf-20">
          <mxGeometry y="156" width="470" height="26" as="geometry" />
        </mxCell>
        <mxCell id="s-BpeEBcPMlO-4F1Bydf-22" value="" style="line;strokeWidth=1;fillColor=none;align=left;verticalAlign=middle;spacingTop=-1;spacingLeft=3;spacingRight=3;rotatable=0;labelPosition=right;points=[];portConstraint=eastwest;strokeColor=inherit;" vertex="1" parent="s-BpeEBcPMlO-4F1Bydf-20">
          <mxGeometry y="182" width="470" height="8" as="geometry" />
        </mxCell>
        <mxCell id="s-BpeEBcPMlO-4F1Bydf-23" value="+PlayerMotion(AnimSetting, animSetting)" style="text;strokeColor=none;fillColor=none;align=left;verticalAlign=top;spacingLeft=4;spacingRight=4;overflow=hidden;rotatable=0;points=[[0,0.5],[1,0.5]];portConstraint=eastwest;whiteSpace=wrap;html=1;" vertex="1" parent="s-BpeEBcPMlO-4F1Bydf-20">
          <mxGeometry y="190" width="470" height="26" as="geometry" />
        </mxCell>
        <mxCell id="s-BpeEBcPMlO-4F1Bydf-24" value="+Update : void" style="text;strokeColor=none;fillColor=none;align=left;verticalAlign=top;spacingLeft=4;spacingRight=4;overflow=hidden;rotatable=0;points=[[0,0.5],[1,0.5]];portConstraint=eastwest;whiteSpace=wrap;html=1;" vertex="1" parent="s-BpeEBcPMlO-4F1Bydf-20">
          <mxGeometry y="216" width="470" height="26" as="geometry" />
        </mxCell>
        <mxCell id="s-BpeEBcPMlO-4F1Bydf-30" value="+Enable(bool enable) : void" style="text;strokeColor=none;fillColor=none;align=left;verticalAlign=top;spacingLeft=4;spacingRight=4;overflow=hidden;rotatable=0;points=[[0,0.5],[1,0.5]];portConstraint=eastwest;whiteSpace=wrap;html=1;" vertex="1" parent="s-BpeEBcPMlO-4F1Bydf-20">
          <mxGeometry y="242" width="470" height="26" as="geometry" />
        </mxCell>
        <mxCell id="s-BpeEBcPMlO-4F1Bydf-31" value="+Stop() : void" style="text;strokeColor=none;fillColor=none;align=left;verticalAlign=top;spacingLeft=4;spacingRight=4;overflow=hidden;rotatable=0;points=[[0,0.5],[1,0.5]];portConstraint=eastwest;whiteSpace=wrap;html=1;" vertex="1" parent="s-BpeEBcPMlO-4F1Bydf-20">
          <mxGeometry y="268" width="470" height="26" as="geometry" />
        </mxCell>
        <mxCell id="s-BpeEBcPMlO-4F1Bydf-32" value="+GetPlayerMode() : Transform" style="text;strokeColor=none;fillColor=none;align=left;verticalAlign=top;spacingLeft=4;spacingRight=4;overflow=hidden;rotatable=0;points=[[0,0.5],[1,0.5]];portConstraint=eastwest;whiteSpace=wrap;html=1;" vertex="1" parent="s-BpeEBcPMlO-4F1Bydf-20">
          <mxGeometry y="294" width="470" height="26" as="geometry" />
        </mxCell>
        <mxCell id="s-BpeEBcPMlO-4F1Bydf-33" value="+DetectGround() : void" style="text;strokeColor=none;fillColor=none;align=left;verticalAlign=top;spacingLeft=4;spacingRight=4;overflow=hidden;rotatable=0;points=[[0,0.5],[1,0.5]];portConstraint=eastwest;whiteSpace=wrap;html=1;" vertex="1" parent="s-BpeEBcPMlO-4F1Bydf-20">
          <mxGeometry y="320" width="470" height="26" as="geometry" />
        </mxCell>
        <mxCell id="s-BpeEBcPMlO-4F1Bydf-71" value="PlayerMotor" style="swimlane;fontStyle=1;align=center;verticalAlign=top;childLayout=stackLayout;horizontal=1;startSize=26;horizontalStack=0;resizeParent=1;resizeParentMax=0;resizeLast=0;collapsible=1;marginBottom=0;whiteSpace=wrap;html=1;" vertex="1" parent="WIyWlLk6GJQsqaUBKTNV-1">
          <mxGeometry x="715" y="750" width="380" height="502" as="geometry" />
        </mxCell>
        <mxCell id="s-BpeEBcPMlO-4F1Bydf-35" value="_param : PlayerParam" style="text;strokeColor=none;fillColor=none;align=left;verticalAlign=top;spacingLeft=4;spacingRight=4;overflow=hidden;rotatable=0;points=[[0,0.5],[1,0.5]];portConstraint=eastwest;whiteSpace=wrap;html=1;" vertex="1" parent="s-BpeEBcPMlO-4F1Bydf-71">
          <mxGeometry y="26" width="380" height="26" as="geometry" />
        </mxCell>
        <mxCell id="s-BpeEBcPMlO-4F1Bydf-38" value="_model : Transform" style="text;strokeColor=none;fillColor=none;align=left;verticalAlign=top;spacingLeft=4;spacingRight=4;overflow=hidden;rotatable=0;points=[[0,0.5],[1,0.5]];portConstraint=eastwest;whiteSpace=wrap;html=1;" vertex="1" parent="s-BpeEBcPMlO-4F1Bydf-71">
          <mxGeometry y="52" width="380" height="26" as="geometry" />
        </mxCell>
        <mxCell id="s-BpeEBcPMlO-4F1Bydf-76" value="_anim : PlayerAnim" style="text;strokeColor=none;fillColor=none;align=left;verticalAlign=top;spacingLeft=4;spacingRight=4;overflow=hidden;rotatable=0;points=[[0,0.5],[1,0.5]];portConstraint=eastwest;whiteSpace=wrap;html=1;" vertex="1" parent="s-BpeEBcPMlO-4F1Bydf-71">
          <mxGeometry y="78" width="380" height="26" as="geometry" />
        </mxCell>
        <mxCell id="s-BpeEBcPMlO-4F1Bydf-39" value="_rigiBody : Rigibody" style="text;strokeColor=none;fillColor=none;align=left;verticalAlign=top;spacingLeft=4;spacingRight=4;overflow=hidden;rotatable=0;points=[[0,0.5],[1,0.5]];portConstraint=eastwest;whiteSpace=wrap;html=1;" vertex="1" parent="s-BpeEBcPMlO-4F1Bydf-71">
          <mxGeometry y="104" width="380" height="26" as="geometry" />
        </mxCell>
        <mxCell id="s-BpeEBcPMlO-4F1Bydf-40" value="_walkSpeed : float" style="text;strokeColor=none;fillColor=none;align=left;verticalAlign=top;spacingLeft=4;spacingRight=4;overflow=hidden;rotatable=0;points=[[0,0.5],[1,0.5]];portConstraint=eastwest;whiteSpace=wrap;html=1;" vertex="1" parent="s-BpeEBcPMlO-4F1Bydf-71">
          <mxGeometry y="130" width="380" height="26" as="geometry" />
        </mxCell>
        <mxCell id="s-BpeEBcPMlO-4F1Bydf-41" value="_runSpeed : float" style="text;strokeColor=none;fillColor=none;align=left;verticalAlign=top;spacingLeft=4;spacingRight=4;overflow=hidden;rotatable=0;points=[[0,0.5],[1,0.5]];portConstraint=eastwest;whiteSpace=wrap;html=1;" vertex="1" parent="s-BpeEBcPMlO-4F1Bydf-71">
          <mxGeometry y="156" width="380" height="26" as="geometry" />
        </mxCell>
        <mxCell id="s-BpeEBcPMlO-4F1Bydf-75" value="_rotateSpeed : float" style="text;strokeColor=none;fillColor=none;align=left;verticalAlign=top;spacingLeft=4;spacingRight=4;overflow=hidden;rotatable=0;points=[[0,0.5],[1,0.5]];portConstraint=eastwest;whiteSpace=wrap;html=1;" vertex="1" parent="s-BpeEBcPMlO-4F1Bydf-71">
          <mxGeometry y="182" width="380" height="26" as="geometry" />
        </mxCell>
        <mxCell id="s-BpeEBcPMlO-4F1Bydf-42" value="_jumpForce : float" style="text;strokeColor=none;fillColor=none;align=left;verticalAlign=top;spacingLeft=4;spacingRight=4;overflow=hidden;rotatable=0;points=[[0,0.5],[1,0.5]];portConstraint=eastwest;whiteSpace=wrap;html=1;" vertex="1" parent="s-BpeEBcPMlO-4F1Bydf-71">
          <mxGeometry y="208" width="380" height="26" as="geometry" />
        </mxCell>
        <mxCell id="s-BpeEBcPMlO-4F1Bydf-43" value="_rollForce : float" style="text;strokeColor=none;fillColor=none;align=left;verticalAlign=top;spacingLeft=4;spacingRight=4;overflow=hidden;rotatable=0;points=[[0,0.5],[1,0.5]];portConstraint=eastwest;whiteSpace=wrap;html=1;" vertex="1" parent="s-BpeEBcPMlO-4F1Bydf-71">
          <mxGeometry y="234" width="380" height="26" as="geometry" />
        </mxCell>
        <mxCell id="s-BpeEBcPMlO-4F1Bydf-44" value="_animMultiply : float" style="text;strokeColor=none;fillColor=none;align=left;verticalAlign=top;spacingLeft=4;spacingRight=4;overflow=hidden;rotatable=0;points=[[0,0.5],[1,0.5]];portConstraint=eastwest;whiteSpace=wrap;html=1;" vertex="1" parent="s-BpeEBcPMlO-4F1Bydf-71">
          <mxGeometry y="260" width="380" height="26" as="geometry" />
        </mxCell>
        <mxCell id="s-BpeEBcPMlO-4F1Bydf-45" value="_speedMultiply : float" style="text;strokeColor=none;fillColor=none;align=left;verticalAlign=top;spacingLeft=4;spacingRight=4;overflow=hidden;rotatable=0;points=[[0,0.5],[1,0.5]];portConstraint=eastwest;whiteSpace=wrap;html=1;" vertex="1" parent="s-BpeEBcPMlO-4F1Bydf-71">
          <mxGeometry y="286" width="380" height="26" as="geometry" />
        </mxCell>
        <mxCell id="s-BpeEBcPMlO-4F1Bydf-73" value="" style="line;strokeWidth=1;fillColor=none;align=left;verticalAlign=middle;spacingTop=-1;spacingLeft=3;spacingRight=3;rotatable=0;labelPosition=right;points=[];portConstraint=eastwest;strokeColor=inherit;" vertex="1" parent="s-BpeEBcPMlO-4F1Bydf-71">
          <mxGeometry y="312" width="380" height="8" as="geometry" />
        </mxCell>
        <mxCell id="s-BpeEBcPMlO-4F1Bydf-74" value="+PlayerMotor(PlayerMtion motion)&amp;nbsp;" style="text;strokeColor=none;fillColor=none;align=left;verticalAlign=top;spacingLeft=4;spacingRight=4;overflow=hidden;rotatable=0;points=[[0,0.5],[1,0.5]];portConstraint=eastwest;whiteSpace=wrap;html=1;" vertex="1" parent="s-BpeEBcPMlO-4F1Bydf-71">
          <mxGeometry y="320" width="380" height="26" as="geometry" />
        </mxCell>
        <mxCell id="s-BpeEBcPMlO-4F1Bydf-80" value="+Idel() : void" style="text;strokeColor=none;fillColor=none;align=left;verticalAlign=top;spacingLeft=4;spacingRight=4;overflow=hidden;rotatable=0;points=[[0,0.5],[1,0.5]];portConstraint=eastwest;whiteSpace=wrap;html=1;" vertex="1" parent="s-BpeEBcPMlO-4F1Bydf-71">
          <mxGeometry y="346" width="380" height="26" as="geometry" />
        </mxCell>
        <mxCell id="s-BpeEBcPMlO-4F1Bydf-81" value="+Move() : void" style="text;strokeColor=none;fillColor=none;align=left;verticalAlign=top;spacingLeft=4;spacingRight=4;overflow=hidden;rotatable=0;points=[[0,0.5],[1,0.5]];portConstraint=eastwest;whiteSpace=wrap;html=1;" vertex="1" parent="s-BpeEBcPMlO-4F1Bydf-71">
          <mxGeometry y="372" width="380" height="26" as="geometry" />
        </mxCell>
        <mxCell id="s-BpeEBcPMlO-4F1Bydf-82" value="+Jump()&amp;nbsp; : void" style="text;strokeColor=none;fillColor=none;align=left;verticalAlign=top;spacingLeft=4;spacingRight=4;overflow=hidden;rotatable=0;points=[[0,0.5],[1,0.5]];portConstraint=eastwest;whiteSpace=wrap;html=1;" vertex="1" parent="s-BpeEBcPMlO-4F1Bydf-71">
          <mxGeometry y="398" width="380" height="26" as="geometry" />
        </mxCell>
        <mxCell id="s-BpeEBcPMlO-4F1Bydf-83" value="+Fall() : void" style="text;strokeColor=none;fillColor=none;align=left;verticalAlign=top;spacingLeft=4;spacingRight=4;overflow=hidden;rotatable=0;points=[[0,0.5],[1,0.5]];portConstraint=eastwest;whiteSpace=wrap;html=1;" vertex="1" parent="s-BpeEBcPMlO-4F1Bydf-71">
          <mxGeometry y="424" width="380" height="26" as="geometry" />
        </mxCell>
        <mxCell id="s-BpeEBcPMlO-4F1Bydf-84" value="+Roll(Vector2 input) : void" style="text;strokeColor=none;fillColor=none;align=left;verticalAlign=top;spacingLeft=4;spacingRight=4;overflow=hidden;rotatable=0;points=[[0,0.5],[1,0.5]];portConstraint=eastwest;whiteSpace=wrap;html=1;" vertex="1" parent="s-BpeEBcPMlO-4F1Bydf-71">
          <mxGeometry y="450" width="380" height="26" as="geometry" />
        </mxCell>
        <mxCell id="s-BpeEBcPMlO-4F1Bydf-85" value="+UpdateMultiply(float value, float speed) : float" style="text;strokeColor=none;fillColor=none;align=left;verticalAlign=top;spacingLeft=4;spacingRight=4;overflow=hidden;rotatable=0;points=[[0,0.5],[1,0.5]];portConstraint=eastwest;whiteSpace=wrap;html=1;" vertex="1" parent="s-BpeEBcPMlO-4F1Bydf-71">
          <mxGeometry y="476" width="380" height="26" as="geometry" />
        </mxCell>
        <mxCell id="s-BpeEBcPMlO-4F1Bydf-77" value="1" style="endArrow=open;html=1;endSize=12;startArrow=diamondThin;startSize=14;startFill=0;edgeStyle=orthogonalEdgeStyle;align=left;verticalAlign=bottom;rounded=0;entryX=0.903;entryY=0.923;entryDx=0;entryDy=0;entryPerimeter=0;exitX=-0.013;exitY=0.077;exitDx=0;exitDy=0;exitPerimeter=0;" edge="1" parent="WIyWlLk6GJQsqaUBKTNV-1" source="s-BpeEBcPMlO-4F1Bydf-76" target="s-BpeEBcPMlO-4F1Bydf-19">
          <mxGeometry x="-1" y="3" relative="1" as="geometry">
            <mxPoint x="390" y="790" as="sourcePoint" />
            <mxPoint x="550" y="790" as="targetPoint" />
            <Array as="points">
              <mxPoint x="450" y="830" />
            </Array>
          </mxGeometry>
        </mxCell>
        <mxCell id="s-BpeEBcPMlO-4F1Bydf-79" value="Use" style="endArrow=open;endSize=12;dashed=1;html=1;rounded=0;entryX=0.46;entryY=1.131;entryDx=0;entryDy=0;entryPerimeter=0;exitX=0.329;exitY=0;exitDx=0;exitDy=0;exitPerimeter=0;" edge="1" parent="WIyWlLk6GJQsqaUBKTNV-1" source="s-BpeEBcPMlO-4F1Bydf-71" target="s-BpeEBcPMlO-4F1Bydf-33">
          <mxGeometry width="160" relative="1" as="geometry">
            <mxPoint x="800" y="710" as="sourcePoint" />
            <mxPoint x="960" y="710" as="targetPoint" />
          </mxGeometry>
        </mxCell>
        <mxCell id="s-BpeEBcPMlO-4F1Bydf-88" value="Use" style="endArrow=open;endSize=12;dashed=1;html=1;rounded=0;entryX=0.307;entryY=-0.003;entryDx=0;entryDy=0;entryPerimeter=0;" edge="1" parent="WIyWlLk6GJQsqaUBKTNV-1" source="s-BpeEBcPMlO-4F1Bydf-87" target="s-BpeEBcPMlO-4F1Bydf-20">
          <mxGeometry width="160" relative="1" as="geometry">
            <mxPoint x="660" y="170" as="sourcePoint" />
            <mxPoint x="820" y="170" as="targetPoint" />
          </mxGeometry>
        </mxCell>
        <mxCell id="s-BpeEBcPMlO-4F1Bydf-89" value="PlayerParam" style="swimlane;fontStyle=1;align=center;verticalAlign=top;childLayout=stackLayout;horizontal=1;startSize=26;horizontalStack=0;resizeParent=1;resizeParentMax=0;resizeLast=0;collapsible=1;marginBottom=0;whiteSpace=wrap;html=1;" vertex="1" parent="WIyWlLk6GJQsqaUBKTNV-1">
          <mxGeometry x="1110" y="750" width="370" height="268" as="geometry" />
        </mxCell>
        <mxCell id="s-BpeEBcPMlO-4F1Bydf-90" value="+moveInput : Vector2" style="text;strokeColor=none;fillColor=none;align=left;verticalAlign=top;spacingLeft=4;spacingRight=4;overflow=hidden;rotatable=0;points=[[0,0.5],[1,0.5]];portConstraint=eastwest;whiteSpace=wrap;html=1;" vertex="1" parent="s-BpeEBcPMlO-4F1Bydf-89">
          <mxGeometry y="26" width="370" height="26" as="geometry" />
        </mxCell>
        <mxCell id="s-BpeEBcPMlO-4F1Bydf-95" value="+run : bool" style="text;strokeColor=none;fillColor=none;align=left;verticalAlign=top;spacingLeft=4;spacingRight=4;overflow=hidden;rotatable=0;points=[[0,0.5],[1,0.5]];portConstraint=eastwest;whiteSpace=wrap;html=1;" vertex="1" parent="s-BpeEBcPMlO-4F1Bydf-89">
          <mxGeometry y="52" width="370" height="26" as="geometry" />
        </mxCell>
        <mxCell id="s-BpeEBcPMlO-4F1Bydf-96" value="+jump : bool" style="text;strokeColor=none;fillColor=none;align=left;verticalAlign=top;spacingLeft=4;spacingRight=4;overflow=hidden;rotatable=0;points=[[0,0.5],[1,0.5]];portConstraint=eastwest;whiteSpace=wrap;html=1;" vertex="1" parent="s-BpeEBcPMlO-4F1Bydf-89">
          <mxGeometry y="78" width="370" height="26" as="geometry" />
        </mxCell>
        <mxCell id="s-BpeEBcPMlO-4F1Bydf-97" value="+isOnGround : bool" style="text;strokeColor=none;fillColor=none;align=left;verticalAlign=top;spacingLeft=4;spacingRight=4;overflow=hidden;rotatable=0;points=[[0,0.5],[1,0.5]];portConstraint=eastwest;whiteSpace=wrap;html=1;" vertex="1" parent="s-BpeEBcPMlO-4F1Bydf-89">
          <mxGeometry y="104" width="370" height="26" as="geometry" />
        </mxCell>
        <mxCell id="s-BpeEBcPMlO-4F1Bydf-98" value="+velocity : Vector3" style="text;strokeColor=none;fillColor=none;align=left;verticalAlign=top;spacingLeft=4;spacingRight=4;overflow=hidden;rotatable=0;points=[[0,0.5],[1,0.5]];portConstraint=eastwest;whiteSpace=wrap;html=1;" vertex="1" parent="s-BpeEBcPMlO-4F1Bydf-89">
          <mxGeometry y="130" width="370" height="26" as="geometry" />
        </mxCell>
        <mxCell id="s-BpeEBcPMlO-4F1Bydf-99" value="+roll : bool" style="text;strokeColor=none;fillColor=none;align=left;verticalAlign=top;spacingLeft=4;spacingRight=4;overflow=hidden;rotatable=0;points=[[0,0.5],[1,0.5]];portConstraint=eastwest;whiteSpace=wrap;html=1;" vertex="1" parent="s-BpeEBcPMlO-4F1Bydf-89">
          <mxGeometry y="156" width="370" height="26" as="geometry" />
        </mxCell>
        <mxCell id="s-BpeEBcPMlO-4F1Bydf-100" value="_animMap : Dictionary&amp;lt;string, AnimBehaviour&amp;gt;" style="text;strokeColor=none;fillColor=none;align=left;verticalAlign=top;spacingLeft=4;spacingRight=4;overflow=hidden;rotatable=0;points=[[0,0.5],[1,0.5]];portConstraint=eastwest;whiteSpace=wrap;html=1;" vertex="1" parent="s-BpeEBcPMlO-4F1Bydf-89">
          <mxGeometry y="182" width="370" height="26" as="geometry" />
        </mxCell>
        <mxCell id="s-BpeEBcPMlO-4F1Bydf-91" value="" style="line;strokeWidth=1;fillColor=none;align=left;verticalAlign=middle;spacingTop=-1;spacingLeft=3;spacingRight=3;rotatable=0;labelPosition=right;points=[];portConstraint=eastwest;strokeColor=inherit;" vertex="1" parent="s-BpeEBcPMlO-4F1Bydf-89">
          <mxGeometry y="208" width="370" height="8" as="geometry" />
        </mxCell>
        <mxCell id="s-BpeEBcPMlO-4F1Bydf-92" value="+AddAnim(string name, AnimBehaviour anim) : void" style="text;strokeColor=none;fillColor=none;align=left;verticalAlign=top;spacingLeft=4;spacingRight=4;overflow=hidden;rotatable=0;points=[[0,0.5],[1,0.5]];portConstraint=eastwest;whiteSpace=wrap;html=1;" vertex="1" parent="s-BpeEBcPMlO-4F1Bydf-89">
          <mxGeometry y="216" width="370" height="26" as="geometry" />
        </mxCell>
        <mxCell id="s-BpeEBcPMlO-4F1Bydf-102" value="+IsAnimEnd(string name, float threshold = 0.1f) : bool" style="text;strokeColor=none;fillColor=none;align=left;verticalAlign=top;spacingLeft=4;spacingRight=4;overflow=hidden;rotatable=0;points=[[0,0.5],[1,0.5]];portConstraint=eastwest;whiteSpace=wrap;html=1;" vertex="1" parent="s-BpeEBcPMlO-4F1Bydf-89">
          <mxGeometry y="242" width="370" height="26" as="geometry" />
        </mxCell>
        <mxCell id="s-BpeEBcPMlO-4F1Bydf-93" value="1" style="endArrow=open;html=1;endSize=12;startArrow=diamondThin;startSize=14;startFill=0;edgeStyle=orthogonalEdgeStyle;align=left;verticalAlign=bottom;rounded=0;entryX=0.234;entryY=0;entryDx=0;entryDy=0;entryPerimeter=0;" edge="1" parent="WIyWlLk6GJQsqaUBKTNV-1" target="s-BpeEBcPMlO-4F1Bydf-71">
          <mxGeometry x="-1" y="3" relative="1" as="geometry">
            <mxPoint x="804" y="620" as="sourcePoint" />
            <mxPoint x="870" y="640" as="targetPoint" />
          </mxGeometry>
        </mxCell>
        <mxCell id="s-BpeEBcPMlO-4F1Bydf-94" value="1" style="endArrow=open;html=1;endSize=12;startArrow=diamondThin;startSize=14;startFill=0;edgeStyle=orthogonalEdgeStyle;align=left;verticalAlign=bottom;rounded=0;entryX=0.081;entryY=0;entryDx=0;entryDy=0;entryPerimeter=0;" edge="1" parent="WIyWlLk6GJQsqaUBKTNV-1" target="s-BpeEBcPMlO-4F1Bydf-89">
          <mxGeometry x="-1" y="3" relative="1" as="geometry">
            <mxPoint x="1140" y="621" as="sourcePoint" />
            <mxPoint x="1200" y="640" as="targetPoint" />
          </mxGeometry>
        </mxCell>
        <mxCell id="s-BpeEBcPMlO-4F1Bydf-103" value="1" style="endArrow=open;html=1;endSize=12;startArrow=diamondThin;startSize=14;startFill=0;edgeStyle=orthogonalEdgeStyle;align=left;verticalAlign=bottom;rounded=0;exitX=0;exitY=0.5;exitDx=0;exitDy=0;entryX=1.005;entryY=0.507;entryDx=0;entryDy=0;entryPerimeter=0;" edge="1" parent="WIyWlLk6GJQsqaUBKTNV-1" source="s-BpeEBcPMlO-4F1Bydf-29" target="s-BpeEBcPMlO-4F1Bydf-13">
          <mxGeometry x="-1" y="3" relative="1" as="geometry">
            <mxPoint x="530" y="450" as="sourcePoint" />
            <mxPoint x="520" y="420" as="targetPoint" />
            <Array as="points">
              <mxPoint x="520" y="439" />
            </Array>
          </mxGeometry>
        </mxCell>
        <mxCell id="s-BpeEBcPMlO-4F1Bydf-104" value="PlayerInput" style="swimlane;fontStyle=1;align=center;verticalAlign=top;childLayout=stackLayout;horizontal=1;startSize=26;horizontalStack=0;resizeParent=1;resizeParentMax=0;resizeLast=0;collapsible=1;marginBottom=0;whiteSpace=wrap;html=1;" vertex="1" parent="WIyWlLk6GJQsqaUBKTNV-1">
          <mxGeometry x="1300" y="430" width="300" height="138" as="geometry" />
        </mxCell>
        <mxCell id="s-BpeEBcPMlO-4F1Bydf-105" value="+_param : PlayerParam" style="text;strokeColor=none;fillColor=none;align=left;verticalAlign=top;spacingLeft=4;spacingRight=4;overflow=hidden;rotatable=0;points=[[0,0.5],[1,0.5]];portConstraint=eastwest;whiteSpace=wrap;html=1;" vertex="1" parent="s-BpeEBcPMlO-4F1Bydf-104">
          <mxGeometry y="26" width="300" height="26" as="geometry" />
        </mxCell>
        <mxCell id="s-BpeEBcPMlO-4F1Bydf-106" value="" style="line;strokeWidth=1;fillColor=none;align=left;verticalAlign=middle;spacingTop=-1;spacingLeft=3;spacingRight=3;rotatable=0;labelPosition=right;points=[];portConstraint=eastwest;strokeColor=inherit;" vertex="1" parent="s-BpeEBcPMlO-4F1Bydf-104">
          <mxGeometry y="52" width="300" height="8" as="geometry" />
        </mxCell>
        <mxCell id="s-BpeEBcPMlO-4F1Bydf-107" value="+PlayerInput(PlayerMotion motion)" style="text;strokeColor=none;fillColor=none;align=left;verticalAlign=top;spacingLeft=4;spacingRight=4;overflow=hidden;rotatable=0;points=[[0,0.5],[1,0.5]];portConstraint=eastwest;whiteSpace=wrap;html=1;" vertex="1" parent="s-BpeEBcPMlO-4F1Bydf-104">
          <mxGeometry y="60" width="300" height="26" as="geometry" />
        </mxCell>
        <mxCell id="s-BpeEBcPMlO-4F1Bydf-109" value="+Enable(bool enable) : void" style="text;strokeColor=none;fillColor=none;align=left;verticalAlign=top;spacingLeft=4;spacingRight=4;overflow=hidden;rotatable=0;points=[[0,0.5],[1,0.5]];portConstraint=eastwest;whiteSpace=wrap;html=1;" vertex="1" parent="s-BpeEBcPMlO-4F1Bydf-104">
          <mxGeometry y="86" width="300" height="26" as="geometry" />
        </mxCell>
        <mxCell id="s-BpeEBcPMlO-4F1Bydf-110" value="+Update() : void" style="text;strokeColor=none;fillColor=none;align=left;verticalAlign=top;spacingLeft=4;spacingRight=4;overflow=hidden;rotatable=0;points=[[0,0.5],[1,0.5]];portConstraint=eastwest;whiteSpace=wrap;html=1;" vertex="1" parent="s-BpeEBcPMlO-4F1Bydf-104">
          <mxGeometry y="112" width="300" height="26" as="geometry" />
        </mxCell>
        <mxCell id="s-BpeEBcPMlO-4F1Bydf-108" value="1" style="endArrow=open;html=1;endSize=12;startArrow=diamondThin;startSize=14;startFill=0;edgeStyle=orthogonalEdgeStyle;align=left;verticalAlign=bottom;rounded=0;" edge="1" parent="WIyWlLk6GJQsqaUBKTNV-1">
          <mxGeometry x="-1" y="3" relative="1" as="geometry">
            <mxPoint x="1140" y="460" as="sourcePoint" />
            <mxPoint x="1300" y="460" as="targetPoint" />
          </mxGeometry>
        </mxCell>
        <mxCell id="s-BpeEBcPMlO-4F1Bydf-111" value="1" style="endArrow=open;html=1;endSize=12;startArrow=diamondThin;startSize=14;startFill=0;edgeStyle=orthogonalEdgeStyle;align=left;verticalAlign=bottom;rounded=0;entryX=0.785;entryY=-0.013;entryDx=0;entryDy=0;entryPerimeter=0;" edge="1" parent="WIyWlLk6GJQsqaUBKTNV-1">
          <mxGeometry x="-1" y="3" relative="1" as="geometry">
            <mxPoint x="1400" y="570" as="sourcePoint" />
            <mxPoint x="1400.45" y="749.9960000000001" as="targetPoint" />
            <Array as="points">
              <mxPoint x="1400" y="590" />
            </Array>
          </mxGeometry>
        </mxCell>
        <mxCell id="s-BpeEBcPMlO-4F1Bydf-112" value="Use" style="endArrow=open;endSize=12;dashed=1;html=1;rounded=0;entryX=0.934;entryY=0;entryDx=0;entryDy=0;entryPerimeter=0;exitX=0;exitY=0.5;exitDx=0;exitDy=0;" edge="1" parent="WIyWlLk6GJQsqaUBKTNV-1" source="s-BpeEBcPMlO-4F1Bydf-109" target="s-BpeEBcPMlO-4F1Bydf-71">
          <mxGeometry width="160" relative="1" as="geometry">
            <mxPoint x="1180" y="630" as="sourcePoint" />
            <mxPoint x="1340" y="630" as="targetPoint" />
          </mxGeometry>
        </mxCell>
      </root>
    </mxGraphModel>
  </diagram>
</mxfile>
